# xmcd
#
# Track frame offsets:
#	150
#	8373
#	21503
#	34965
#	50074
#	63575
#	88398
#	105233
#	124703
#	138417
#	158928
#	175299
#
# Disc length: 2388 seconds
#
# Revision: 1
# Processed by: cddbd v1.5.1PL0 Copyright (c) Steve Scherf et al.
# Submitted via: EasyCDDAExtractor 7.1.0.1
#
DISCID=a109520c
DTITLE=THE BLUES BROTHERS - Briefcase Full Of Blues
DYEAR=1900
DGENRE=Blues
TTITLE0=Opening: I Can't Turn You Loose
TTITLE1=Hey Bartender
TTITLE2=Messin' With The Kid
TTITLE3=(I Got Everything I Need) Almost
TTITLE4=Rubber Biscuit
TTITLE5=Shot Gun Blues
TTITLE6=Groove Me
TTITLE7=I Don't Know
TTITLE8=Soul Man
TTITLE9=B Movie Box Car Blues
TTITLE10=Flip, Flop and Fly
TTITLE11=Closing: I Can't Turn You Loose
EXTD=
EXTT0=
EXTT1=
EXTT2=
EXTT3=
EXTT4=
EXTT5=
EXTT6=
EXTT7=
EXTT8=
EXTT9=
EXTT10=
EXTT11=
PLAYORDER=
